<mxfile host="app.diagrams.net" modified="2021-01-05T10:32:52.553Z" agent="5.0 (Macintosh; Intel Mac OS X 10_14_6) AppleWebKit/537.36 (KHTML, like Gecko) Chrome/87.0.4280.88 Safari/537.36" etag="JNruqDIb5LlklkGZ9D_N" version="14.1.8" type="github">
  <diagram id="me8S0Cq8Ajwkelrcasnu" name="第 1 页">
    <mxGraphModel dx="2931" dy="1514" grid="1" gridSize="10" guides="1" tooltips="1" connect="1" arrows="1" fold="1" page="1" pageScale="1" pageWidth="1500" pageHeight="1500" background="#F4F1DE" math="0" shadow="0">
      <root>
        <mxCell id="0" />
        <mxCell id="1" parent="0" />
      </root>
    </mxGraphModel>
  </diagram>
</mxfile>
